Coordinates
version=1
nRows=21
nColumns=12
inDegrees=yes

Units are S.I. units (second, meters, Newtons, ...)
Angles are in degrees

endheader
time	SC_y	SC_z	SC_x	AC_y	AC_z	AC_x	GH_y	GH_z	GH_yy	EL_x	PS_y
       0.0              -42.38          12.99          68.92          32.16          -12.5          15.52         -140.8          19.06         -40.09          102.8          139.9
 0.0005507              -42.37          12.99          68.91          32.16         -12.49          15.51         -140.7          19.06          -40.1          102.8          139.8
  0.001101              -42.37          12.99           68.9          32.16         -12.49          15.51         -140.7          19.06          -40.1          102.8          139.8
  0.001652              -42.37          12.99          68.89          32.16         -12.49          15.51         -140.7          19.05         -40.11          102.8          139.8
  0.002203              -42.36          12.99          68.88          32.17         -12.49           15.5         -140.7          19.05         -40.11          102.7          139.8
  0.002754              -42.36          12.99          68.87          32.17         -12.48           15.5         -140.7          19.05         -40.12          102.7          139.7
  0.003304              -42.36          12.99          68.86          32.17         -12.48           15.5         -140.7          19.05         -40.12          102.7          139.7
  0.003855              -42.35          12.99          68.85          32.17         -12.48          15.49         -140.6          19.05         -40.13          102.7          139.7
  0.004406              -42.35          12.99          68.83          32.18         -12.48          15.49         -140.6          19.04         -40.14          102.7          139.7
  0.004957              -42.35          12.99          68.82          32.18         -12.47          15.48         -140.6          19.04         -40.15          102.7          139.6
  0.005507              -42.34          12.99          68.81          32.18         -12.47          15.48         -140.6          19.04         -40.15          102.6          139.6
  0.006058              -42.34          12.99          68.79          32.19         -12.47          15.47         -140.5          19.04         -40.16          102.6          139.6
  0.006609              -42.33          12.99          68.77          32.19         -12.46          15.46         -140.5          19.03         -40.17          102.6          139.5
  0.007159              -42.33          12.99          68.75           32.2         -12.46          15.46         -140.5          19.03         -40.18          102.6          139.5
   0.00771              -42.32          12.99          68.73           32.2         -12.45          15.45         -140.5          19.03         -40.19          102.5          139.4
  0.008261              -42.31          12.99          68.71          32.21         -12.45          15.44         -140.4          19.02         -40.21          102.5          139.4
  0.008812              -42.31          12.99          68.69          32.21         -12.44          15.43         -140.4          19.02         -40.22          102.5          139.3
  0.009362               -42.3          12.99          68.66          32.22         -12.44          15.42         -140.3          19.02         -40.23          102.4          139.3
  0.009913              -42.29          12.99          68.63          32.23         -12.43          15.41         -140.3          19.01         -40.25          102.4          139.2
   0.01046              -42.28          12.99           68.6          32.23         -12.42           15.4         -140.2          19.01         -40.27          102.3          139.1
   0.01101              -42.27          12.99          68.57          32.24         -12.41          15.39         -140.2           19.0         -40.29          102.3          139.1
